<?xml version="1.0" standalone="no"?>
<!DOCTYPE svg PUBLIC "-//W3C//DTD SVG 20010904//EN"
 "http://www.w3.org/TR/2001/REC-SVG-20010904/DTD/svg10.dtd">
<svg version="1.0" xmlns="http://www.w3.org/2000/svg"
 width="2000.000000pt" height="2000.000000pt" viewBox="0 0 2000.000000 2000.000000"
 preserveAspectRatio="xMidYMid meet">

<g transform="translate(0.000000,2000.000000) scale(0.100000,-0.100000)"
fill="#000000" stroke="none">
<path d="M6333 18633 c-5 -1 -242 -4 -528 -8 -286 -3 -549 -7 -585 -9 -36 -1
-180 -8 -320 -14 -140 -7 -284 -16 -320 -22 -36 -5 -119 -14 -185 -20 -136
-12 -356 -43 -460 -64 -162 -34 -314 -70 -368 -87 -31 -11 -66 -19 -77 -19
-11 0 -39 -8 -62 -19 -24 -10 -56 -23 -73 -29 -70 -24 -103 -36 -160 -60 -77
-31 -395 -190 -415 -206 -8 -7 -22 -16 -30 -19 -8 -4 -33 -18 -55 -32 -22 -13
-52 -31 -67 -40 -15 -8 -57 -36 -94 -63 -36 -26 -76 -54 -87 -62 -35 -24 -208
-157 -263 -203 -260 -214 -576 -560 -735 -802 -128 -195 -164 -254 -216 -345
-67 -119 -183 -353 -183 -370 0 -6 -11 -32 -25 -58 -14 -26 -25 -55 -25 -65 0
-11 -6 -33 -14 -50 -8 -18 -26 -72 -41 -122 -15 -49 -33 -108 -41 -130 -7 -22
-16 -58 -19 -80 -4 -22 -13 -60 -20 -85 -8 -25 -21 -85 -29 -135 -9 -49 -20
-112 -25 -140 -38 -209 -74 -649 -86 -1070 -34 -1134 -36 -1586 -32 -6625 3
-4577 5 -5012 20 -5090 17 -88 51 -206 66 -224 5 -6 14 -27 20 -47 36 -111
229 -344 367 -442 109 -78 260 -146 414 -188 72 -19 111 -23 250 -23 145 -1
174 2 240 22 125 39 234 85 340 143 80 44 288 245 1360 1317 652 651 1203
1199 1225 1216 41 33 97 59 195 92 53 18 223 19 5110 25 3780 4 5075 8 5135
17 44 6 172 16 285 22 113 6 252 17 310 25 58 8 139 19 180 24 248 30 677 129
798 182 23 10 50 19 60 19 9 0 34 9 55 20 20 11 43 20 49 20 7 0 36 12 63 25
28 14 55 25 60 25 13 0 243 117 277 141 14 11 29 19 31 19 13 0 295 181 407
262 238 171 685 602 800 772 8 12 31 42 51 67 42 50 75 97 155 219 31 47 64
96 74 110 9 14 27 45 40 70 14 25 30 52 36 60 28 35 172 336 213 442 20 52 30
82 71 198 7 19 18 59 25 88 8 30 20 75 28 100 34 105 92 400 108 547 6 55 13
103 15 107 7 11 44 453 54 643 25 471 31 1020 30 2790 0 1034 -2 2004 -4 2155
-8 451 -24 939 -36 1040 -6 52 -17 172 -25 265 -18 208 -48 429 -69 511 -9 34
-16 76 -16 92 0 17 -4 42 -9 55 -6 14 -16 56 -24 94 -18 85 -97 355 -107 368
-5 6 -13 30 -20 55 -7 24 -27 76 -46 113 -19 38 -34 74 -34 81 -1 35 -189 369
-313 556 -261 391 -551 701 -947 1008 -68 53 -316 221 -344 233 -12 5 -59 33
-106 61 -87 54 -294 159 -359 183 -20 7 -49 20 -66 29 -16 9 -36 16 -43 16 -7
0 -30 9 -52 20 -22 11 -47 20 -57 20 -10 1 -36 9 -58 20 -22 11 -47 19 -55 20
-8 0 -44 8 -80 19 -142 42 -378 94 -480 106 -30 3 -89 12 -130 20 -41 7 -106
16 -145 20 -38 3 -128 12 -200 20 -71 8 -240 19 -375 25 -135 6 -254 13 -265
16 -47 11 -1355 16 -5012 17 -2141 1 -3896 1 -3900 0z m9052 -1211 c198 -12
412 -29 475 -37 63 -8 158 -19 210 -25 52 -6 109 -15 125 -20 17 -5 55 -12 85
-16 76 -9 313 -72 430 -114 83 -30 211 -92 249 -122 13 -10 28 -18 33 -18 15
0 168 -90 244 -145 162 -113 237 -177 398 -335 128 -125 196 -202 280 -315 62
-82 121 -164 132 -182 10 -18 39 -65 63 -105 147 -240 265 -566 301 -828 4
-30 14 -93 23 -140 43 -229 70 -666 85 -1360 9 -455 9 -3882 0 -4305 -12 -525
-27 -881 -43 -1000 -8 -60 -17 -153 -21 -205 -3 -52 -15 -137 -25 -189 -11
-51 -19 -105 -19 -119 0 -73 -83 -367 -149 -527 -58 -142 -240 -457 -285 -494
-9 -8 -16 -19 -16 -25 0 -12 -41 -66 -151 -202 -59 -72 -242 -252 -345 -339
-189 -161 -434 -315 -676 -425 -158 -72 -467 -153 -663 -175 -33 -3 -96 -12
-140 -20 -83 -15 -398 -42 -590 -50 -60 -3 -159 -8 -220 -11 -60 -4 -2313 -8
-5005 -10 -4295 -3 -4911 -6 -5025 -19 -143 -17 -284 -47 -357 -76 -26 -10
-53 -19 -60 -19 -18 0 -272 -126 -338 -169 -153 -97 -257 -196 -1350 -1288
-624 -623 -1141 -1133 -1148 -1133 -6 0 -12 6 -12 13 0 6 0 2399 0 5317 0
4565 2 5371 15 5775 16 471 49 929 80 1080 8 39 19 102 24 140 23 151 88 382
145 510 93 207 168 335 334 568 111 155 337 388 513 529 113 91 294 214 361
247 26 12 64 34 84 47 70 48 247 123 404 172 124 38 408 96 520 106 30 2 107
11 170 20 155 21 609 47 975 56 165 4 2374 6 4910 5 l4610 -1 360 -22z"/>
<path d="M5935 13761 c-72 -18 -168 -72 -225 -127 -109 -104 -154 -217 -148
-370 4 -93 12 -123 57 -213 53 -108 216 -224 336 -240 28 -3 1963 -4 4300 -1
l4250 5 55 26 c168 80 290 266 290 440 0 72 -33 198 -65 245 -74 109 -147 172
-250 214 l-60 25 -4255 2 c-2340 0 -4268 -2 -4285 -6z"/>
<path d="M6115 10200 l-200 -5 -80 -40 c-83 -42 -180 -127 -210 -184 -42 -82
-65 -169 -65 -247 0 -235 157 -431 377 -473 87 -17 6064 -17 6156 0 148 26
276 134 343 290 25 58 28 76 28 179 0 110 -2 119 -33 185 -65 141 -162 231
-292 274 l-66 22 -2879 2 c-1584 1 -2969 0 -3079 -3z"/>
</g>
</svg>
